<svg width="18" height="20" viewBox="0 0 18 20" fill="none" xmlns="http://www.w3.org/2000/svg">
<path d="M9.00569 6.66504C8.34653 6.66504 7.70236 6.86087 7.15403 7.22671C6.60569 7.59337 6.17819 8.11337 5.92569 8.72254C5.67403 9.33171 5.60819 10.0017 5.73653 10.6484C5.86486 11.295 6.18236 11.8892 6.64903 12.355C7.11486 12.8217 7.70903 13.1392 8.35569 13.2675C9.00236 13.3967 9.67236 13.33 10.2815 13.0784C10.8907 12.8259 11.4107 12.3984 11.7774 11.85C12.1432 11.3025 12.339 10.6575 12.339 9.99838C12.339 9.11421 11.9882 8.26671 11.3624 7.64171C10.7374 7.01587 9.88986 6.66504 9.00569 6.66504ZM9.00569 11.665C8.67569 11.665 8.35403 11.5675 8.07986 11.3842C7.80569 11.2009 7.59236 10.9409 7.46569 10.6359C7.33986 10.3317 7.30653 9.99671 7.37069 9.67338C7.43569 9.35004 7.59403 9.05338 7.82736 8.82004C8.05986 8.58671 8.35736 8.42837 8.68069 8.36337C9.00403 8.29921 9.33903 8.33254 9.64319 8.45837C9.94819 8.58504 10.2082 8.79838 10.3915 9.07254C10.5749 9.34671 10.6724 9.66838 10.6724 9.99838C10.6724 10.44 10.4965 10.8642 10.184 11.1767C9.87153 11.4892 9.44736 11.665 9.00569 11.665Z" fill="#101213"/>
<path d="M4.18336 15.75C4.18336 15.75 4.14164 15.7167 4.12497 15.7L3.75001 15.9167C3.17501 16.25 2.49165 16.3334 1.84999 16.1667C1.21665 15.9917 0.666697 15.575 0.333364 15C3.015e-05 14.425 -0.0833439 13.7417 0.0833228 13.1C0.258323 12.4583 0.67501 11.9084 1.25001 11.5834L1.62497 11.3667C1.4583 10.4584 1.4583 9.53332 1.62497 8.62499L1.25001 8.40831C0.67501 8.08331 0.258323 7.53336 0.0833228 6.89169C-0.0833439 6.25002 3.015e-05 5.57501 0.333364 5.00001C0.666697 4.425 1.21665 3.99998 1.84999 3.83332C2.49165 3.65832 3.17501 3.75002 3.75001 4.08336L4.12497 4.29169C4.82497 3.70002 5.62495 3.23335 6.49995 2.92501V2.5C6.49995 1.83334 6.75829 1.2 7.23329 0.724997C7.69995 0.25833 8.33328 0 8.99995 0C9.65828 0 10.2999 0.25833 10.7666 0.724997C11.2333 1.2 11.4999 1.83334 11.4999 2.5V2.92501C12.3666 3.23335 13.175 3.69169 13.875 4.29169L14.2416 4.07502C14.525 3.91668 14.8416 3.80835 15.1666 3.76669C15.4916 3.72502 15.825 3.74164 16.1417 3.82498C16.4583 3.91664 16.7583 4.05833 17.0166 4.25833C17.2749 4.45833 17.4916 4.70833 17.6583 4.99166C17.825 5.275 17.9333 5.59165 17.975 5.91665C18.0166 6.24165 17.9917 6.57502 17.9083 6.89169C17.825 7.20836 17.675 7.5084 17.475 7.76673C17.275 8.02507 17.025 8.24998 16.7416 8.40831L16.375 8.62499C16.5417 9.53332 16.5417 10.4584 16.375 11.3667L16.7416 11.575C17.3166 11.9084 17.7333 12.4583 17.9083 13.1C18.0833 13.7417 17.9916 14.4167 17.6583 14.9917C17.325 15.5667 16.7833 15.9917 16.1417 16.1584C15.5 16.3334 14.8166 16.2417 14.2416 15.9083L13.875 15.7C13.1667 16.3 12.3666 16.7583 11.4999 17.0667V17.5C11.4999 18.1584 11.2333 18.7917 10.7666 19.2667C10.2999 19.7334 9.65828 20 8.99995 20C8.33328 20 7.69995 19.7334 7.23329 19.2667C6.75829 18.7917 6.49995 18.1584 6.49995 17.5V17.0917L6.41664 17.0334C6.29164 16.9251 6.20002 16.7834 6.15836 16.6084C6.10836 16.3917 6.14168 16.1584 6.25001 15.9667C6.36668 15.7667 6.55001 15.6167 6.76667 15.5584C6.91667 15.5167 7.07494 15.5167 7.22494 15.5584C7.22494 15.5584 7.44161 15.6167 7.53327 15.6417C7.71661 15.6917 7.87498 15.8 7.99165 15.9417C8.09998 16.0834 8.16662 16.2667 8.16662 16.45V17.5C8.16662 17.7167 8.24998 17.9334 8.40831 18.0834C8.56665 18.2417 8.77495 18.3334 8.99995 18.3334C9.21662 18.3334 9.43334 18.2417 9.58334 18.0834C9.74168 17.9334 9.83328 17.7167 9.83328 17.5V16.45C9.83328 16.2667 9.89168 16.0834 10.0084 15.9417C10.1167 15.7917 10.2749 15.6917 10.4583 15.6417C11.4833 15.3834 12.4166 14.8417 13.1583 14.0834C13.2916 13.95 13.4583 13.8667 13.6417 13.8417C13.825 13.8167 14.0083 13.85 14.1667 13.9417L15.075 14.4667C15.2666 14.575 15.4917 14.6084 15.7083 14.5501C15.925 14.4918 16.1083 14.35 16.2166 14.1667C16.325 13.975 16.3583 13.7417 16.3 13.5333C16.2416 13.3167 16.1 13.1334 15.9083 13.025L15.0084 12.5C14.85 12.4083 14.725 12.2667 14.65 12.1C14.5833 11.925 14.5666 11.7333 14.6166 11.5583C14.8999 10.5333 14.8999 9.45834 14.6166 8.43334C14.5666 8.25834 14.5833 8.06666 14.65 7.89999C14.725 7.72499 14.85 7.58333 15.0084 7.49167L15.9083 6.975C16.0083 6.91667 16.0834 6.84166 16.1584 6.75833C16.225 6.66666 16.275 6.57502 16.3 6.46668C16.3333 6.35835 16.3333 6.25 16.325 6.14167C16.3083 6.03334 16.275 5.92501 16.2166 5.83334C16.1666 5.73334 16.0916 5.65007 16 5.5834C15.9166 5.51673 15.8167 5.4667 15.7083 5.4417C15.6 5.4167 15.4916 5.40835 15.3833 5.42501C15.275 5.43335 15.1666 5.47501 15.075 5.52501L14.175 6.05001C14.0084 6.14168 13.825 6.18335 13.6417 6.15835C13.4583 6.13335 13.2916 6.04165 13.1583 5.90831C12.4166 5.15831 11.4833 4.60831 10.4583 4.34998C10.2749 4.29998 10.1167 4.19999 10.0084 4.04999C9.89168 3.90833 9.83328 3.725 9.83328 3.54167V2.5C9.83328 2.275 9.74168 2.0667 9.58334 1.90837C9.43334 1.75003 9.21662 1.66667 8.99995 1.66667C8.77495 1.66667 8.56665 1.75003 8.40831 1.90837C8.24998 2.0667 8.16662 2.275 8.16662 2.5V3.54167C8.16662 3.725 8.10831 3.90833 7.99165 4.04999C7.87498 4.19999 7.71662 4.30831 7.54162 4.34998C6.50828 4.61665 5.57495 5.15831 4.83328 5.90831C4.70828 6.04165 4.53332 6.12501 4.34999 6.15001C4.16665 6.17501 3.98331 6.14168 3.82498 6.05001L2.91668 5.52501C2.72501 5.41668 2.5 5.38336 2.28333 5.4417C2.075 5.50003 1.89169 5.64167 1.78336 5.83334C1.66669 6.01667 1.64161 6.25001 1.69994 6.45834C1.75827 6.67501 1.89168 6.85833 2.08334 6.96666L2.99165 7.49167C3.14998 7.58333 3.27502 7.72498 3.34168 7.89165C3.41668 8.06665 3.42495 8.25 3.37495 8.43334C3.09162 9.45001 3.09162 10.5333 3.37495 11.5583C3.42495 11.7333 3.41668 11.925 3.34168 12.0917C3.27502 12.2667 3.14998 12.4083 2.99165 12.5L2.08334 13.025C1.99168 13.075 1.90831 13.15 1.84164 13.2334C1.77498 13.325 1.72503 13.4167 1.6917 13.525C1.6667 13.6333 1.65835 13.7417 1.67502 13.85C1.68335 13.9583 1.72501 14.0667 1.77501 14.1583C1.83335 14.2583 1.90836 14.3417 1.99169 14.4084C2.08336 14.475 2.18334 14.5251 2.28333 14.5501C2.39167 14.5834 2.50001 14.5833 2.60835 14.575C2.71668 14.5583 2.82501 14.5167 2.91668 14.4667L3.82498 13.9417C3.98331 13.85 4.16665 13.8083 4.34999 13.8333C4.53332 13.8583 4.70828 13.95 4.83328 14.0834C4.89162 14.1334 5.09166 14.3167 5.09166 14.3167C5.21666 14.4334 5.30836 14.6 5.33336 14.775C5.37503 15 5.325 15.225 5.2 15.4167C5.06667 15.6084 4.87497 15.7417 4.64997 15.7834C4.49164 15.8167 4.33336 15.8 4.18336 15.75Z" fill="#101213"/>
</svg>
