<svg width="120" height="24" viewBox="0 0 120 24" fill="none" xmlns="http://www.w3.org/2000/svg">
<path fill-rule="evenodd" clip-rule="evenodd" d="M0.00366211 5.68962H23.4328V0H0.00366211V5.68962Z" fill="#FDC82F"/>
<path fill-rule="evenodd" clip-rule="evenodd" d="M48.5778 17.2558H41.3473L43.8042 8.59021H50.8634L50.2885 10.6007H46.0746L45.7169 11.8476H49.2931L48.7178 13.8737H45.1414L44.7525 15.2296H49.153L48.5778 17.2558ZM0.00366211 23.4145H23.4331V8.5343H0.00366211V23.4145ZM37.2284 14.5437C37.073 14.5597 36.9173 14.5597 36.7622 14.5597H35.3313L34.5695 17.2558H31.7239L34.1962 8.59052H37.2268V8.59021H38.362C40.8496 8.59021 41.7203 9.72771 41.2229 11.5048C40.7255 13.2652 39.4352 14.4033 37.2284 14.5437ZM37.2284 10.6007H36.4509L35.9207 12.5295L37.2268 12.5332C37.8174 12.5019 38.3151 12.2214 38.5171 11.5201C38.735 10.7095 37.864 10.6004 37.2578 10.6004H37.2284V10.6007ZM105.612 14.3096H106.514L106.483 11.1927L105.612 12.7203L104.725 14.3096H105.612ZM105.612 8.87067L105.799 8.59021H108.691L109.328 17.2558H106.499V16.1177H105.612H103.669L103.015 17.2558H100.403H100.232L100.403 16.9907L105.612 8.87067ZM119.964 11.0993C120.182 9.58763 119.435 8.35645 117.041 8.35645C114.864 8.35645 113.013 9.27584 112.501 11.1303C111.552 14.4347 116.792 13.5309 116.419 14.8558C116.31 15.2607 115.766 15.4944 115.066 15.4944C114.786 15.4944 114.507 15.4167 114.32 15.2763C114.118 15.1203 114.008 14.9022 114.04 14.5907H111.319C110.945 16.1493 112.05 17.4896 114.335 17.4896C116.715 17.4896 118.674 16.5078 119.233 14.4973C120.135 11.349 114.926 12.144 115.299 10.8501C115.377 10.5384 115.704 10.3513 116.341 10.3513C116.605 10.3513 116.854 10.3983 117.025 10.5073C117.196 10.6164 117.305 10.8031 117.258 11.0993H119.964ZM100.403 11.2243C100.434 11.1619 100.45 11.1152 100.465 11.0529C100.652 10.3983 100.652 9.86839 100.403 9.47858C100.03 8.87067 99.0814 8.59021 97.3241 8.59021H96.3756H93.2349L90.778 17.2558H93.6079L94.4786 14.2319H95.3342C95.8626 14.2319 96.189 14.2943 96.3753 14.4343C96.671 14.6528 96.6245 15.0579 96.4222 15.7436C96.4063 15.8062 96.3909 15.8526 96.3753 15.8996C96.189 16.5852 96.1268 17.0841 96.1424 17.2558H96.3753H99.0189L99.0811 16.9907C98.7547 16.9907 98.8945 16.6166 99.2212 15.4791C99.7186 13.7334 99.2212 13.5153 98.4124 13.1721C99.439 12.907 100.108 12.1437 100.403 11.2243ZM96.3756 12.3305C97.1065 12.2841 97.5574 12.05 97.713 11.5048C97.884 10.8968 97.4798 10.6007 96.8267 10.6007H96.3753H95.5046L95.0069 12.3305H96.1268C96.2202 12.3305 96.2981 12.3305 96.3756 12.3305ZM85.6315 17.2401C87.591 17.1311 89.0369 16.4298 89.5343 14.6531C89.7985 13.7023 89.5343 12.892 88.6637 12.6579C89.3164 12.3154 90.0786 11.6605 90.3275 10.7721C90.8092 9.04208 89.3946 8.59021 87.4507 8.59021H85.6312H83.299L80.842 17.2558H85.0716C85.2585 17.2558 85.4445 17.2558 85.6315 17.2401ZM85.6315 10.6007H86.5644C87.1709 10.6007 87.7152 10.6164 87.5285 11.302C87.3888 11.8012 86.9067 12.0503 86.3318 12.0503H85.6318H85.1657L85.5699 10.601H85.6315V10.6007ZM85.6315 13.64C86.5181 13.64 87.1709 13.6864 86.9533 14.4347C86.782 15.0582 86.2692 15.214 85.6315 15.2296C85.5852 15.2296 85.538 15.2296 85.4917 15.2296H84.2631L84.7142 13.64H85.6162C85.6162 13.64 85.6162 13.64 85.6315 13.64ZM75.4929 15.245C76.3327 14.9179 76.8926 14.0135 77.2033 12.8757C77.5454 11.6918 77.4212 10.4447 76.1617 10.4757C75.9131 10.4757 75.6955 10.5227 75.4929 10.6004C74.6066 10.9589 74.0627 11.9873 73.8138 12.8757C73.4871 13.9828 73.4402 15.3697 74.793 15.3697C75.0424 15.37 75.2757 15.3233 75.4929 15.245ZM75.4929 8.49683C75.9131 8.40314 76.3486 8.35645 76.7838 8.35645C79.8782 8.35645 80.7023 10.585 80.0489 12.876C79.3495 15.3236 77.5453 16.882 75.4929 17.3495C75.0734 17.4429 74.6382 17.4896 74.1874 17.4896C71.4813 17.4896 70.1442 15.8065 70.9683 12.8453C71.6217 10.5694 73.363 8.96405 75.4929 8.49683ZM65.5263 15.8996C65.542 15.8529 65.5576 15.8062 65.5726 15.7436C65.7749 15.0582 65.8218 14.6528 65.5263 14.4343C65.3397 14.2943 65.0133 14.2319 64.4846 14.2319H63.6296L62.7899 17.2558H60.2707H59.9443L60.2707 16.1177L62.401 8.59021H65.5263H66.4745C69.367 8.59021 70.0823 9.36953 69.6158 11.0529C69.3201 12.0503 68.6517 12.892 67.5634 13.1724C68.3719 13.5156 68.8696 13.7337 68.3719 15.4794C68.0455 16.6169 67.9057 16.991 68.2478 16.991L68.1699 17.2561H65.5266H65.2931C65.2775 17.0844 65.3553 16.5855 65.5263 15.8996ZM65.5263 12.3305C66.2572 12.2841 66.7078 12.05 66.8634 11.5048C67.0345 10.8968 66.6302 10.6007 65.9771 10.6007H65.526H64.655L64.1576 12.3305H65.2775C65.3706 12.3305 65.4485 12.3305 65.5263 12.3305ZM60.2707 9.72771L60.5971 8.59021H60.2707H52.6516L52.0142 10.8655H54.5646L52.7451 17.2558H55.5753L57.3945 10.8655H59.9446L60.2707 9.72771Z" fill="#008542"/>
<path fill-rule="evenodd" clip-rule="evenodd" d="M23.434 8.53361V5.68604H0V8.53361H4.50905L2.01104 17.1955H7.12536C9.34081 17.1955 9.72696 16.677 10.1765 16.2989C10.7769 15.7936 11.099 14.5925 10.8293 13.7569C10.6387 13.1656 10.0806 12.808 10.0196 12.7905C10.7119 12.4686 11.1146 11.7627 11.1643 11.6589C11.4211 11.1235 11.6203 10.154 10.9816 9.37375C10.4505 8.72529 9.41896 8.54682 8.67057 8.53392H14.1459L11.639 17.2133H14.1762L15.1033 13.9225H16.5526C17.6062 13.9225 17.5103 14.5799 17.5364 14.8628L17.6194 17.2831L19.9755 17.2825C19.9755 17.2825 19.8692 14.5664 19.8603 14.3676C19.829 13.67 19.3678 13.3554 18.9743 13.3554C19.7291 13.1509 20.3847 12.4643 20.6467 12.0238C20.9489 11.516 21.176 10.7078 20.8772 9.90549C20.4435 8.74127 19.3255 8.54774 18.5446 8.53392H23.434V8.53361ZM16.1174 10.279H17.9626C18.8373 10.279 18.8722 10.8753 18.8722 11.0451C18.8722 11.4411 18.5241 12.2204 17.4622 12.2204H15.5817C15.582 12.2204 16.1073 10.3266 16.1174 10.279ZM5.58444 13.5391H7.27308C8.09993 13.5391 8.14712 13.764 8.26113 13.9572C8.37452 14.1486 8.32211 14.5531 8.24396 14.6926C8.14528 14.868 7.97856 15.4111 6.92064 15.4111H5.04445C5.04445 15.4108 5.58352 13.5413 5.58444 13.5391ZM6.50783 10.2689H8.46125C8.84893 10.2689 9.20106 10.5186 9.20106 10.9299C9.20106 11.4847 8.75975 11.8733 8.14773 11.8733H6.05702L6.50783 10.2689Z" fill="white"/>
</svg>
