<svg width="20" height="14" viewBox="0 0 20 14" fill="none" xmlns="http://www.w3.org/2000/svg">
<path d="M12.0174 0.025022C11.8591 0.0583521 11.7175 0.133361 11.6008 0.250016C11.4425 0.408334 11.3591 0.616615 11.3591 0.841593C11.3591 1.05824 11.4425 1.27494 11.6008 1.42493C11.7258 1.55825 11.8925 1.63317 12.0675 1.6665V1.67484H12.1758C12.1758 1.67484 12.184 1.67484 12.1924 1.67484L19.3334 1.6665V1.64992C19.4917 1.61659 19.6417 1.54159 19.75 1.42493C19.9083 1.26661 19.9999 1.05823 19.9999 0.833252C19.9999 0.616606 19.9083 0.399994 19.75 0.241676C19.625 0.116688 19.4666 0.0416707 19.2917 0.00834066V0H19.1833C19.175 0 19.1667 0 19.1667 0L12.0174 0.00834066V0.025022Z" fill="#101213"/>
<path d="M12.0174 11.6803C11.8591 11.7136 11.7175 11.7886 11.6008 11.9053C11.4425 12.0636 11.3591 12.2719 11.3591 12.4969C11.3591 12.7135 11.4425 12.9302 11.6008 13.0802C11.7258 13.2135 11.8925 13.2884 12.0675 13.3218V13.3301H12.1758C12.1758 13.3301 12.184 13.3301 12.1924 13.3301L19.3334 13.3218V13.3052C19.4917 13.2719 19.6417 13.1969 19.75 13.0802C19.9083 12.9219 19.9999 12.7135 19.9999 12.4885C19.9999 12.2719 19.9083 12.0553 19.75 11.8969C19.625 11.772 19.4666 11.6969 19.2917 11.6636V11.6553H19.1833C19.175 11.6553 19.1667 11.6553 19.1667 11.6553L12.0174 11.6636V11.6803Z" fill="#101213"/>
<path d="M19.1647 5.83398H0.833248C0.373295 5.83398 0 6.2073 0 6.66728C0 7.12725 0.373295 7.50057 0.833248 7.50057H19.1647C19.6247 7.50057 19.998 7.12725 19.998 6.66728C19.998 6.2073 19.6247 5.83398 19.1647 5.83398Z" fill="#101213"/>
<path d="M7.93672 0.0102539H0.833251C0.373296 0.0102539 0 0.383546 0 0.843496C0 1.30344 0.373296 1.67674 0.833251 1.67674H7.93672C8.39667 1.67674 8.76997 1.30344 8.76997 0.843496C8.76997 0.383546 8.39667 0.0102539 7.93672 0.0102539Z" fill="#101213"/>
<path d="M7.93672 11.6582H0.833251C0.373296 11.6582 0 12.0315 0 12.4915C0 12.9515 0.373296 13.3248 0.833251 13.3248H7.93672C8.39667 13.3248 8.76997 12.9515 8.76997 12.4915C8.76997 12.0315 8.39667 11.6582 7.93672 11.6582Z" fill="#101213"/>
</svg>
